<svg width="44" height="50" viewBox="0 0 44 50" fill="none" xmlns="http://www.w3.org/2000/svg">
<path fill-rule="evenodd" clip-rule="evenodd" d="M26.5075 8.33333C26.5075 3.73095 30.2555 0 34.8788 0C39.502 0 43.25 3.73095 43.25 8.33333C43.25 12.9357 39.502 16.6667 34.8788 16.6667C32.5443 16.6667 30.4345 15.7149 28.9178 14.1837L17.3292 22.0738C17.4362 22.6063 17.4925 23.1562 17.4925 23.718C17.4925 24.8305 17.2725 25.894 16.874 26.866L29.5807 35.2145C31.023 34.0403 32.8683 33.3332 34.8788 33.3332C39.502 33.3332 43.25 37.0643 43.25 41.6668C43.25 46.269 39.502 50 34.8788 50C30.2555 50 26.5075 46.269 26.5075 41.6668C26.5075 40.4613 26.7655 39.3138 27.2292 38.2778L14.6252 29.9968C13.1549 31.2745 11.229 32.0513 9.1212 32.0513C4.49793 32.0513 0.75 28.3202 0.75 23.718C0.75 19.1156 4.49793 15.3846 9.1212 15.3846C11.7798 15.3846 14.1463 16.6181 15.6786 18.538L26.9097 10.8911C26.6485 10.084 26.5075 9.224 26.5075 8.33333Z" fill="#1C274C"/>
</svg>
