<svg width="56" height="55" viewBox="0 0 56 55" fill="none" xmlns="http://www.w3.org/2000/svg">
<path d="M26.245 5.94574C26.8995 4.40596 27.2269 3.63608 27.6826 3.39899C28.0784 3.19301 28.5432 3.19301 28.939 3.39899C29.3948 3.63608 29.7222 4.40596 30.3767 5.94574L35.5901 18.2103C35.7838 18.6654 35.8805 18.893 36.0303 19.0673C36.1626 19.2216 36.3246 19.3449 36.5053 19.4293C36.7097 19.5248 36.946 19.551 37.4188 19.6033L50.1535 21.0127C51.7523 21.1896 52.5515 21.2781 52.9075 21.6593C53.2165 21.9904 53.3601 22.4541 53.2957 22.9125C53.2216 23.4402 52.6245 24.0044 51.4302 25.1331L41.9175 34.1224C41.5646 34.456 41.3879 34.6229 41.2762 34.8259C41.1773 35.0059 41.1154 35.2054 41.0947 35.4118C41.0713 35.6451 41.1205 35.8888 41.2191 36.3765L43.8762 49.5119C44.2098 51.1611 44.3766 51.9856 44.1408 52.4582C43.9358 52.8691 43.5598 53.1554 43.1241 53.2328C42.6226 53.3218 41.9262 52.9008 40.5335 52.0585L29.4409 45.3495C29.0292 45.1005 28.8234 44.9763 28.6046 44.9274C28.4109 44.8844 28.2107 44.8844 28.0171 44.9274C27.7982 44.9763 27.5924 45.1005 27.1808 45.3495L16.0882 52.0585C14.6955 52.9008 13.9992 53.3218 13.4976 53.2328C13.0619 53.1554 12.6858 52.8691 12.481 52.4582C12.2452 51.9856 12.412 51.1611 12.7456 49.5119L15.4025 36.3765C15.5011 35.8888 15.5504 35.6451 15.527 35.4118C15.5063 35.2054 15.4445 35.0059 15.3455 34.8259C15.2337 34.6229 15.0572 34.456 14.7041 34.1224L5.19156 25.1331C3.99731 24.0044 3.40017 23.4402 3.32593 22.9125C3.26147 22.4541 3.40512 21.9904 3.71425 21.6593C4.07014 21.2781 4.86954 21.1896 6.46834 21.0127L19.203 19.6033C19.6757 19.551 19.912 19.5248 20.1163 19.4293C20.2971 19.3449 20.459 19.2216 20.5915 19.0673C20.7412 18.893 20.838 18.6654 21.0315 18.2103L26.245 5.94574Z" stroke="#2D3142" stroke-width="5" stroke-linecap="round" stroke-linejoin="round"/>
</svg>

<svg width="56" height="55" viewBox="0 0 28 55" fill="none" xmlns="http://www.w3.org/2000/svg">
<path d="M26.245 5.94574C26.8995 4.40596 27.2269 3.63608 27.6826 3.39899C28.0784 3.19301 28.5432 3.19301 28.939 3.39899C29.3948 3.63608 29.7222 4.40596 30.3767 5.94574L35.5901 18.2103C35.7838 18.6654 35.8805 18.893 36.0303 19.0673C36.1626 19.2216 36.3246 19.3449 36.5053 19.4293C36.7097 19.5248 36.946 19.551 37.4188 19.6033L50.1535 21.0127C51.7523 21.1896 52.5515 21.2781 52.9075 21.6593C53.2165 21.9904 53.3601 22.4541 53.2957 22.9125C53.2216 23.4402 52.6245 24.0044 51.4302 25.1331L41.9175 34.1224C41.5646 34.456 41.3879 34.6229 41.2762 34.8259C41.1773 35.0059 41.1154 35.2054 41.0947 35.4118C41.0713 35.6451 41.1205 35.8888 41.2191 36.3765L43.8762 49.5119C44.2098 51.1611 44.3766 51.9856 44.1408 52.4582C43.9358 52.8691 43.5598 53.1554 43.1241 53.2328C42.6226 53.3218 41.9262 52.9008 40.5335 52.0585L29.4409 45.3495C29.0292 45.1005 28.8234 44.9763 28.6046 44.9274C28.4109 44.8844 28.2107 44.8844 28.0171 44.9274C27.7982 44.9763 27.5924 45.1005 27.1808 45.3495L16.0882 52.0585C14.6955 52.9008 13.9992 53.3218 13.4976 53.2328C13.0619 53.1554 12.6858 52.8691 12.481 52.4582C12.2452 51.9856 12.412 51.1611 12.7456 49.5119L15.4025 36.3765C15.5011 35.8888 15.5504 35.6451 15.527 35.4118C15.5063 35.2054 15.4445 35.0059 15.3455 34.8259C15.2337 34.6229 15.0572 34.456 14.7041 34.1224L5.19156 25.1331C3.99731 24.0044 3.40017 23.4402 3.32593 22.9125C3.26147 22.4541 3.40512 21.9904 3.71425 21.6593C4.07014 21.2781 4.86954 21.1896 6.46834 21.0127L19.203 19.6033C19.6757 19.551 19.912 19.5248 20.1163 19.4293C20.2971 19.3449 20.459 19.2216 20.5915 19.0673C20.7412 18.893 20.838 18.6654 21.0315 18.2103L26.245 5.94574Z" stroke="#2D3142" stroke-width="5" stroke-linecap="round" stroke-linejoin="round"/>
</svg>